<svg width="335" height="437" viewBox="0 0 335 437" fill="none" xmlns="http://www.w3.org/2000/svg">
<mask id="mask0_2_7668" style="mask-type:alpha" maskUnits="userSpaceOnUse" x="0" y="0" width="335" height="437">
<rect width="335" height="436.422" rx="30" fill="#F8F9FB"/>
</mask>
<g mask="url(#mask0_2_7668)">
<path d="M0.399231 500.275L332.991 500.275L332.991 -73.6779H0.399231L0.399231 500.275Z" fill="#EEEBDF"/>
<path opacity="0.5" d="M0.399231 500.275L332.991 500.275L332.991 -73.6779H0.399231L0.399231 500.275Z" fill="white"/>
<path d="M332.991 362.644H220.875V461.576H332.991V362.644Z" fill="#8EF3AA"/>
<path d="M2.28882e-05 230.203L121.459 230.203L121.459 167.449H2.28882e-05L2.28882e-05 230.203Z" fill="#8EF3AA"/>
<path d="M332.991 412.677H220.875V418.546H332.991V412.677Z" fill="#95EAC4"/>
<path d="M220.875 -73.6777H206.204V500.275H220.875V-73.6777Z" fill="white"/>
<path d="M332.991 97.2692H0.398926V111.591H332.991V97.2692Z" fill="white"/>
<path d="M332.991 6.69904V0.830605H66.7983V-73.6777H59.0924V0.830605H0.398926V6.69904H59.0924V51.2027H0.398926V57.0711H59.0924V161.11H0.398926V166.978H332.991V161.11H66.7983V57.0696H332.991V51.2012H66.7983V6.69904H332.991Z" fill="white"/>
<path d="M58.2812 443.769H121.298V387.118L101.904 372.955C89.3379 380.224 78.7738 390.5 71.1598 402.86C63.5459 415.219 59.1206 429.277 58.2812 443.769Z" fill="#B2D58F"/>
<path d="M332.991 253.234V229.756H144.783V-73.6777H121.305V229.756H0.398926V253.234H121.298V314.189C113.697 316.64 107.052 321.405 102.292 327.818C97.5321 334.231 94.8952 341.971 94.7503 349.956C84.7963 355.032 75.6981 361.634 67.7854 369.523C48.6156 388.694 33.7039 418.376 33.7039 462.551V500.275H57.1823V462.551C57.1823 409.794 81.038 384.762 101.904 372.955C106.687 379.629 113.485 384.593 121.298 387.118V500.275H144.783V387.118C150.525 385.262 155.748 382.079 160.03 377.827C164.311 373.574 167.529 368.373 169.424 362.643H333V339.165H169.588C167.744 333.325 164.531 328.01 160.214 323.665C155.898 319.319 150.605 316.07 144.777 314.188V253.234H332.991Z" fill="#908EF3"/>
<path d="M333 -7.65405H144.739V15.6256H333V-7.65405Z" fill="#8EF3AA"/>
<path d="M145.812 353.669C147.478 346.614 143.108 339.544 136.053 337.879C128.998 336.213 121.929 340.582 120.263 347.637C118.598 354.692 122.967 361.762 130.022 363.427C137.077 365.093 144.146 360.724 145.812 353.669Z" fill="white"/>
<g style="mix-blend-mode:multiply" opacity="0.6">
<path d="M28.4482 299.097V252.612H22.5796V443.628H28.4482V304.96H121.269V299.091L28.4482 299.097Z" fill="white"/>
</g>
<g filter="url(#filter0_d_2_7668)">
<path d="M288.5 303.5V242H132.5V163.5H226" stroke="#FFCABE" stroke-width="5" stroke-linecap="round" stroke-linejoin="round"/>
</g>
<path opacity="0.5" d="M309.358 307.521C312.061 296.071 304.971 284.597 293.521 281.894C282.071 279.191 270.597 286.282 267.894 297.732C265.191 309.182 272.282 320.655 283.732 323.358C295.182 326.061 306.655 318.971 309.358 307.521Z" fill="#FF795C"/>
<path d="M297.171 304.644C298.285 299.925 295.362 295.196 290.643 294.082C285.924 292.968 281.196 295.89 280.082 300.609C278.968 305.329 281.89 310.057 286.609 311.171C291.328 312.285 296.057 309.363 297.171 304.644Z" fill="#FF512B"/>
<path d="M223.872 99.1328C213.657 100.23 205.742 108.079 204.798 118.019C204.494 121.169 204.92 124.346 206.042 127.305C207.163 130.264 208.951 132.925 211.266 135.083C212.794 136.524 214.233 138.058 215.574 139.674C220.001 145.039 223.11 151.367 224.649 158.151L225.825 163.273C225.846 163.368 225.891 163.456 225.958 163.527C226.025 163.598 226.11 163.649 226.203 163.675C226.271 163.693 226.341 163.698 226.41 163.689C226.479 163.679 226.545 163.657 226.605 163.621C226.665 163.586 226.718 163.539 226.759 163.483C226.801 163.427 226.831 163.364 226.848 163.296L228.099 157.844C229.66 150.929 232.88 144.498 237.481 139.105C238.619 137.778 239.838 136.522 241.131 135.345C243.281 133.411 245.001 131.047 246.181 128.407C247.36 125.766 247.972 122.907 247.977 120.015C247.977 107.62 236.927 97.7305 223.872 99.1328Z" fill="url(#paint0_linear_2_7668)"/>
<path d="M226.588 132.453C224.821 132.452 223.082 132.019 221.526 131.191C219.969 130.363 218.644 129.167 217.667 127.71C216.691 126.252 216.094 124.578 215.929 122.836C215.765 121.094 216.038 119.34 216.725 117.728C216.827 117.487 217.023 117.297 217.268 117.198C217.512 117.1 217.787 117.102 218.03 117.204C218.273 117.306 218.465 117.499 218.565 117.742C218.664 117.984 218.662 118.255 218.559 118.496C217.999 119.81 217.778 121.241 217.913 122.66C218.049 124.08 218.538 125.444 219.336 126.631C220.134 127.817 221.218 128.79 222.488 129.46C223.759 130.131 225.178 130.48 226.618 130.475C228.058 130.47 229.475 130.112 230.741 129.432C232.007 128.752 233.083 127.773 233.873 126.581C234.663 125.388 235.142 124.021 235.268 122.6C235.393 121.18 235.161 119.751 234.593 118.441C234.488 118.201 234.484 117.929 234.582 117.686C234.679 117.443 234.871 117.249 235.113 117.145C235.356 117.042 235.63 117.038 235.875 117.134C236.121 117.231 236.317 117.42 236.422 117.66C237.122 119.273 237.407 121.033 237.251 122.781C237.095 124.53 236.503 126.213 235.528 127.679C234.554 129.145 233.227 130.349 231.666 131.182C230.106 132.015 228.361 132.452 226.588 132.453Z" fill="#A55520"/>
<path d="M220.048 112.696C220.894 112.696 221.58 112.01 221.58 111.164C221.58 110.318 220.894 109.633 220.048 109.633C219.202 109.633 218.517 110.318 218.517 111.164C218.517 112.01 219.202 112.696 220.048 112.696Z" fill="#A55520"/>
<path d="M232.632 112.696C233.477 112.696 234.163 112.01 234.163 111.164C234.163 110.318 233.477 109.633 232.632 109.633C231.786 109.633 231.1 110.318 231.1 111.164C231.1 112.01 231.786 112.696 232.632 112.696Z" fill="#A55520"/>
</g>
<defs>
<filter id="filter0_d_2_7668" x="120" y="159" width="181" height="165" filterUnits="userSpaceOnUse" color-interpolation-filters="sRGB">
<feFlood flood-opacity="0" result="BackgroundImageFix"/>
<feColorMatrix in="SourceAlpha" type="matrix" values="0 0 0 0 0 0 0 0 0 0 0 0 0 0 0 0 0 0 127 0" result="hardAlpha"/>
<feOffset dy="8"/>
<feGaussianBlur stdDeviation="5"/>
<feComposite in2="hardAlpha" operator="out"/>
<feColorMatrix type="matrix" values="0 0 0 0 0 0 0 0 0 0 0 0 0 0 0 0 0 0 0.18 0"/>
<feBlend mode="normal" in2="BackgroundImageFix" result="effect1_dropShadow_2_7668"/>
<feBlend mode="normal" in="SourceGraphic" in2="effect1_dropShadow_2_7668" result="shape"/>
</filter>
<linearGradient id="paint0_linear_2_7668" x1="236.249" y1="141.956" x2="208.377" y2="114.41" gradientUnits="userSpaceOnUse">
<stop stop-color="#FC862D"/>
<stop offset="0.382" stop-color="#FD9E31"/>
<stop offset="0.782" stop-color="#FFBD37"/>
<stop offset="0.856" stop-color="#FFC03B"/>
<stop offset="0.934" stop-color="#FFCB48"/>
<stop offset="1" stop-color="#FFDA59"/>
</linearGradient>
</defs>
</svg>
