<?xml version="1.0" encoding="iso-8859-1"?>
<!-- Uploaded to: SVG Repo, www.svgrepo.com, Generator: SVG Repo Mixer Tools -->
<svg height="800px" width="800px" version="1.1" id="Layer_1" xmlns="http://www.w3.org/2000/svg" xmlns:xlink="http://www.w3.org/1999/xlink" 
	 viewBox="0 0 511.988 511.988" xml:space="preserve">
<path style="fill:#DA4453;" d="M148.871,176.599c34.187-40.765,110.154-72.303,145.966-42.241
	c35.827,30.054,17.968,110.334-16.234,151.091c-34.202,40.765-71.795,26.577-107.606-3.484
	C135.169,251.903,114.669,217.357,148.871,176.599z"/>
<path style="opacity:0.1;enable-background:new    ;" d="M230.244,261.098c3.781-4.516,10.516-5.117,15.031-1.336
	c4.516,3.773,5.125,10.5,1.344,15.016s-10.516,5.125-15.031,1.344C227.073,272.34,226.479,265.621,230.244,261.098z"/>
<path style="opacity:0.1;enable-background:new    ;" d="M197.511,233.716c3.781-4.516,10.5-5.117,15.016-1.344
	c4.531,3.781,5.125,10.508,1.344,15.031c-3.781,4.516-10.5,5.117-15.031,1.336C194.323,244.966,193.729,238.231,197.511,233.716z"/>
<path style="opacity:0.1;enable-background:new    ;" d="M240.853,215.24c3.766-4.516,10.5-5.117,15.016-1.336
	c4.531,3.773,5.125,10.507,1.344,15.023c-3.781,4.516-10.5,5.117-15.031,1.336C237.666,226.489,237.072,219.755,240.853,215.24z"/>
<path style="opacity:0.1;enable-background:new    ;" d="M208.104,187.857c3.781-4.516,10.5-5.117,15.031-1.344
	c4.516,3.781,5.109,10.508,1.328,15.031c-3.781,4.516-10.5,5.117-15.016,1.336S204.323,192.373,208.104,187.857z"/>
<path style="opacity:0.1;enable-background:new    ;" d="M164.777,206.349c3.781-4.523,10.5-5.125,15.031-1.344
	c4.515,3.781,5.108,10.507,1.328,15.023c-3.766,4.523-10.5,5.125-15.016,1.343C161.59,217.591,160.996,210.865,164.777,206.349z"/>
<path style="opacity:0.1;enable-background:new    ;" d="M252.244,168.256c3.781-4.516,10.516-5.117,15.031-1.344
	c4.516,3.781,5.109,10.507,1.344,15.031c-3.781,4.516-10.516,5.117-15.031,1.336C249.073,179.498,248.463,172.772,252.244,168.256z"
	/>
<path style="fill:#8CC153;" d="M503.426,74.024c-2.625-2.234-6.016-2.968-9.141-2.312v-0.008
	c-1.609,0.336-39.436,8.781-58.701,49.444l19.266,9.14c14.624-30.843,42.732-37.46,43.92-37.733v-0.008
	c2.188-0.477,4.266-1.641,5.828-3.484C508.426,84.586,507.894,77.852,503.426,74.024z"/>
<path style="fill:#ED5564;" d="M474.833,221.411c-34.64,40.397-110.919,71.132-146.419,40.702
	c-35.515-30.437-16.797-110.521,17.844-150.918c34.624-40.397,72.061-25.812,107.561,4.625
	C489.316,146.257,509.457,181.021,474.833,221.411z"/>
<g>
	<path style="fill:#DA4453;" d="M394.334,136.054c-3.828,4.484-10.562,5.008-15.03,1.188c-4.484-3.828-5.016-10.562-1.188-15.039
		c3.828-4.484,10.562-5.007,15.046-1.18C397.631,124.843,398.162,131.577,394.334,136.054z"/>
	<path style="fill:#DA4453;" d="M426.787,163.787c-3.828,4.477-10.547,5.008-15.031,1.18s-5.016-10.562-1.188-15.039
		s10.562-5.008,15.047-1.18C430.084,152.577,430.615,159.311,426.787,163.787z"/>
	<path style="fill:#DA4453;" d="M383.257,181.803c-3.828,4.477-10.562,5.008-15.031,1.18c-4.483-3.828-5.015-10.562-1.188-15.039
		c3.828-4.477,10.562-5.007,15.047-1.18C386.554,170.592,387.085,177.326,383.257,181.803z"/>
	<path style="fill:#DA4453;" d="M415.709,209.529c-3.828,4.477-10.562,5.008-15.031,1.18c-4.484-3.82-5.016-10.554-1.188-15.039
		c3.828-4.477,10.562-5.008,15.047-1.18C419.006,198.318,419.537,205.053,415.709,209.529z"/>
	<path style="fill:#DA4453;" d="M459.239,191.498c-3.827,4.484-10.562,5.008-15.046,1.18c-4.484-3.82-5-10.555-1.172-15.031
		c3.812-4.484,10.547-5.007,15.03-1.188C462.536,180.287,463.052,187.021,459.239,191.498z"/>
	<path style="fill:#DA4453;" d="M371.366,228.661c-3.828,4.484-10.562,5.008-15.046,1.18c-4.469-3.82-5-10.554-1.172-15.039
		c3.828-4.477,10.562-5,15.03-1.18C374.663,217.451,375.194,224.184,371.366,228.661z"/>
</g>
<path style="fill:#A0D468;" d="M508.176,134.21c-2.266-1.945-5.125-2.758-7.891-2.508v-0.008
	c-0.25,0.023-25.593,1.969-46.514-15.913c-20.922-17.875-22.969-43.218-22.984-43.421h-0.016c-0.172-2.781-1.422-5.5-3.703-7.453
	c-4.484-3.828-11.219-3.297-15.047,1.18c-1.859,2.195-2.688,4.922-2.516,7.593h-0.016c0.094,1.391,2.438,34.406,30.422,58.327
	c22.218,18.984,47.576,21.102,57.779,21.102c2.656,0,4.297-0.141,4.578-0.172v-0.008c2.656-0.25,5.219-1.492,7.094-3.68
	C513.191,144.772,512.66,138.038,508.176,134.21z"/>
<path style="fill:#8CC153;" d="M121.669,59.712c-2.766-0.422-5.438,0.273-7.578,1.727l-0.016-0.008
	c-1.188,0.812-7.438,5.383-12.797,15.593c-6.828,13.015-9.203,29.125-7.062,47.866l21.203-2.422
	c-3.688-32.218,10.234-43.077,10.828-43.522c-0.125,0.094-0.188,0.141-0.188,0.141l-0.016-0.008
	c2.375-1.617,4.109-4.164,4.562-7.219C131.497,66.032,127.497,60.595,121.669,59.712z"/>
<path style="fill:#ED5564;" d="M180.496,189.303c-8.062,52.593-56.608,118.975-102.826,111.881
	c-46.233-7.094-72.64-84.983-64.562-137.576c8.078-52.584,47.562-59.975,93.779-52.874
	C153.121,117.827,188.573,136.71,180.496,189.303z"/>
<g>
	<path style="fill:#DA4453;" d="M67.076,159.327c0.875-5.82-3.125-11.258-8.953-12.148c-5.812-0.883-11.25,3.125-12.141,8.945
		c-0.89,5.828,3.125,11.265,8.953,12.148C60.748,169.155,66.185,165.155,67.076,159.327z"/>
	<path style="fill:#DA4453;" d="M109.278,165.733c0.875-5.82-3.125-11.257-8.953-12.148c-5.812-0.883-11.249,3.125-12.14,8.945
		c-0.875,5.828,3.125,11.265,8.937,12.147C102.95,175.56,108.388,171.561,109.278,165.733z"/>
	<path style="fill:#DA4453;" d="M81.826,204.021c0.875-5.82-3.125-11.258-8.953-12.141c-5.812-0.883-11.25,3.117-12.141,8.945
		c-0.891,5.82,3.125,11.257,8.938,12.14C75.498,213.857,80.935,209.849,81.826,204.021z"/>
	<path style="fill:#DA4453;" d="M115.075,198.287c-5.812-0.891-11.25,3.117-12.141,8.945c-0.891,5.82,3.125,11.257,8.938,12.14
		c5.828,0.883,11.266-3.117,12.156-8.945C124.903,204.607,120.903,199.17,115.075,198.287z"/>
	<path style="fill:#DA4453;" d="M142.512,159.991c-5.827-0.883-11.265,3.117-12.14,8.945c-0.891,5.82,3.125,11.257,8.937,12.148
		c5.828,0.883,11.266-3.125,12.156-8.945C152.34,166.311,148.34,160.874,142.512,159.991z"/>
	<path style="fill:#DA4453;" d="M87.529,237.95c-5.828-0.883-11.266,3.125-12.156,8.945c-0.875,5.828,3.125,11.265,8.953,12.147
		s11.265-3.117,12.14-8.944C97.356,244.278,93.356,238.841,87.529,237.95z"/>
</g>
<path style="fill:#A0D468;" d="M157.168,97.914c-3.453-0.523-6.766,0.68-9.078,2.953l-0.016-0.008l0.078-0.07
	c-0.031,0.031-3.828,3.578-10.812,6.547c-9.233,3.922-19.499,5.055-30.499,3.391C80.67,106.75,70.498,88.055,70.076,87.266
	l0.047,0.078l-0.016,0.008c-1.5-2.969-4.359-5.187-7.891-5.726c-5.828-0.883-11.266,3.125-12.156,8.945
	c-0.344,2.289,0.078,4.508,1.047,6.43h-0.016c0.609,1.188,15.203,29.148,52.546,34.812c4.484,0.688,8.734,0.984,12.75,0.984
	c29.296,0,45.89-15.968,46.671-16.741l-0.016-0.008c1.594-1.562,2.703-3.617,3.062-5.984
	C166.996,104.234,162.996,98.797,157.168,97.914z"/>
<path style="fill:#FFCE54;" d="M511.988,431.071c0,11.78-9.562,21.327-21.344,21.327H21.327C9.546,452.398,0,442.851,0,431.071
	V196.412h511.988L511.988,431.071L511.988,431.071z"/>
<path style="fill:#F6BB42;" d="M0,239.075v21.335h31.999c0,5.891,4.766,10.664,10.656,10.664s10.671-4.773,10.671-10.664h21.328
	c0,5.891,4.781,10.664,10.672,10.664s10.671-4.773,10.671-10.664h21.328c0,5.891,4.781,10.664,10.672,10.664
	c5.891,0,10.655-4.773,10.655-10.664h21.344c0,5.891,4.766,10.664,10.656,10.664s10.672-4.773,10.672-10.664h21.327
	c0,5.891,4.781,10.664,10.672,10.664s10.672-4.773,10.672-10.664h21.327c0,5.891,4.781,10.664,10.672,10.664
	c5.891,0,10.656-4.773,10.656-10.664h21.343c0,5.891,4.766,10.664,10.655,10.664c5.891,0,10.672-4.773,10.672-10.664h21.328
	c0,5.891,4.781,10.664,10.672,10.664s10.672-4.773,10.672-10.664h21.327c0,5.891,4.781,10.664,10.672,10.664
	c5.89,0,10.655-4.773,10.655-10.664h21.344c0,5.891,4.766,10.664,10.656,10.664s10.672-4.773,10.672-10.664h21.327
	c0,5.891,4.781,10.664,10.672,10.664s10.672-4.773,10.672-10.664h31.608v-21.335H0z"/>
<g style="opacity:0.2;">
	<path style="fill:#FFFFFF;" d="M490.644,196.412v234.659c0,11.78-9.547,21.327-21.327,21.327h21.327
		c11.781,0,21.344-9.547,21.344-21.327V196.412H490.644z"/>
</g>
</svg>