<?xml version="1.0" encoding="iso-8859-1"?>
<!-- Uploaded to: SVG Repo, www.svgrepo.com, Generator: SVG Repo Mixer Tools -->
<svg height="800px" width="800px" version="1.1" id="Layer_1" xmlns="http://www.w3.org/2000/svg" xmlns:xlink="http://www.w3.org/1999/xlink" 
	 viewBox="0 0 512 512" xml:space="preserve">
<circle style="fill:#EDEDEE;" cx="256" cy="256" r="256"/>
<g>
	<path style="fill:#DDDCDF;" d="M512,256c0,141.384-114.616,256-256,256V0C397.384,0,512,114.616,512,256z"/>
	<circle style="fill:#DDDCDF;" cx="256" cy="256" r="144.607"/>
</g>
<path style="fill:#CCCCCF;" d="M400.61,256c0,79.866-64.745,144.61-144.61,144.61V111.39C335.866,111.39,400.61,176.134,400.61,256z
	"/>
<path style="fill:#E05323;" d="M141.137,370.863c26.177,26.177,15.868,63.666,30.392,69.285
	c14.372,5.56,35.417-48.595,25.759-87.499c44.497,7.16,107.694-9.327,160.443-62.077c52.531-52.531,61.736-131.907,53.658-167.275
	l-22.12-0.568l-0.568-22.12c-35.368-8.078-114.744,1.128-167.275,53.658c-52.75,52.75-69.238,115.947-62.077,160.443
	c-38.902-9.658-93.058,11.389-87.499,25.759C77.472,354.995,114.961,344.686,141.137,370.863z"/>
<path style="fill:#A5401D;" d="M141.137,370.863c26.177,26.177,15.868,63.666,30.392,69.285
	c14.372,5.56,35.417-48.595,25.759-87.499c44.497,7.16,107.694-9.327,160.443-62.077c52.531-52.531,61.736-131.907,53.658-167.275
	l-22.12-0.568L141.137,370.863z"/>
<path style="fill:#E3744E;" d="M411.391,123.297l-22.119-0.568l-0.568-22.12c-27.305-6.236-80.839-2.165-128.001,24.185
	c6.329,28.338,21.739,56.91,45.666,80.838c23.928,23.928,52.5,39.337,80.837,45.666
	C413.556,204.137,417.627,150.603,411.391,123.297z"/>
<path style="fill:#E05323;" d="M411.391,123.297l-22.119-0.568l-82.904,82.904c23.928,23.928,52.5,39.337,80.837,45.666
	C413.556,204.137,417.627,150.603,411.391,123.297z"/>
<circle style="fill:#F7F7F8;" cx="322.783" cy="142.136" r="12.662"/>
</svg>